<mxfile host="Electron" agent="Mozilla/5.0 (X11; Linux x86_64) AppleWebKit/537.36 (KHTML, like Gecko) draw.io/26.0.15 Chrome/132.0.6834.196 Electron/34.2.0 Safari/537.36" version="26.0.15">
  <diagram name="Page-1" id="sNcDbqjw_pYAusYVt_Mp">
    <mxGraphModel dx="3348" dy="1656" grid="1" gridSize="10" guides="1" tooltips="1" connect="1" arrows="1" fold="1" page="1" pageScale="1" pageWidth="850" pageHeight="1100" math="0" shadow="0">
      <root>
        <mxCell id="0" />
        <mxCell id="1" parent="0" />
        <mxCell id="Z3fiLp_MwWBO3-BUcPgy-3" value="" style="edgeStyle=orthogonalEdgeStyle;rounded=0;orthogonalLoop=1;jettySize=auto;html=1;" edge="1" parent="1" source="Z3fiLp_MwWBO3-BUcPgy-1" target="Z3fiLp_MwWBO3-BUcPgy-2">
          <mxGeometry relative="1" as="geometry" />
        </mxCell>
        <mxCell id="Z3fiLp_MwWBO3-BUcPgy-1" value="&lt;span style=&quot;color: oklab(0.89908 -0.00192907 -0.0048306); font-family: &amp;quot;gg mono&amp;quot;, &amp;quot;Source Code Pro&amp;quot;, Consolas, &amp;quot;Andale Mono WT&amp;quot;, &amp;quot;Andale Mono&amp;quot;, &amp;quot;Lucida Console&amp;quot;, &amp;quot;Lucida Sans Typewriter&amp;quot;, &amp;quot;DejaVu Sans Mono&amp;quot;, &amp;quot;Bitstream Vera Sans Mono&amp;quot;, &amp;quot;Liberation Mono&amp;quot;, &amp;quot;Nimbus Mono L&amp;quot;, Monaco, &amp;quot;Courier New&amp;quot;, Courier, monospace; font-size: 14px; text-align: left; white-space: pre; background-color: oklab(0.296709 -0.000735492 -0.00772537);&quot;&gt; Day of the Week&lt;/span&gt;" style="rounded=1;whiteSpace=wrap;html=1;arcSize=50;" vertex="1" parent="1">
          <mxGeometry x="328" y="70" width="195" height="60" as="geometry" />
        </mxCell>
        <mxCell id="Z3fiLp_MwWBO3-BUcPgy-6" value="" style="edgeStyle=orthogonalEdgeStyle;rounded=0;orthogonalLoop=1;jettySize=auto;html=1;" edge="1" parent="1" source="Z3fiLp_MwWBO3-BUcPgy-2" target="Z3fiLp_MwWBO3-BUcPgy-5">
          <mxGeometry relative="1" as="geometry" />
        </mxCell>
        <mxCell id="Z3fiLp_MwWBO3-BUcPgy-2" value="Enter number (1-7)&amp;nbsp;" style="shape=parallelogram;perimeter=parallelogramPerimeter;whiteSpace=wrap;html=1;fixedSize=1;" vertex="1" parent="1">
          <mxGeometry x="343" y="200" width="165" height="60" as="geometry" />
        </mxCell>
        <mxCell id="Z3fiLp_MwWBO3-BUcPgy-8" value="" style="edgeStyle=orthogonalEdgeStyle;rounded=0;orthogonalLoop=1;jettySize=auto;html=1;" edge="1" parent="1" source="Z3fiLp_MwWBO3-BUcPgy-5" target="Z3fiLp_MwWBO3-BUcPgy-7">
          <mxGeometry relative="1" as="geometry" />
        </mxCell>
        <mxCell id="Z3fiLp_MwWBO3-BUcPgy-5" value="userInput" style="shape=parallelogram;perimeter=parallelogramPerimeter;whiteSpace=wrap;html=1;fixedSize=1;" vertex="1" parent="1">
          <mxGeometry x="365" y="330" width="120" height="60" as="geometry" />
        </mxCell>
        <mxCell id="Z3fiLp_MwWBO3-BUcPgy-10" value="" style="edgeStyle=orthogonalEdgeStyle;rounded=0;orthogonalLoop=1;jettySize=auto;html=1;" edge="1" parent="1" source="Z3fiLp_MwWBO3-BUcPgy-7" target="Z3fiLp_MwWBO3-BUcPgy-9">
          <mxGeometry relative="1" as="geometry" />
        </mxCell>
        <mxCell id="Z3fiLp_MwWBO3-BUcPgy-22" value="" style="edgeStyle=orthogonalEdgeStyle;rounded=0;orthogonalLoop=1;jettySize=auto;html=1;" edge="1" parent="1" source="Z3fiLp_MwWBO3-BUcPgy-7" target="Z3fiLp_MwWBO3-BUcPgy-21">
          <mxGeometry relative="1" as="geometry" />
        </mxCell>
        <mxCell id="Z3fiLp_MwWBO3-BUcPgy-7" value="userInput == 1" style="rhombus;whiteSpace=wrap;html=1;" vertex="1" parent="1">
          <mxGeometry x="330.5" y="440" width="190" height="80" as="geometry" />
        </mxCell>
        <mxCell id="Z3fiLp_MwWBO3-BUcPgy-12" value="" style="edgeStyle=orthogonalEdgeStyle;rounded=0;orthogonalLoop=1;jettySize=auto;html=1;" edge="1" parent="1" source="Z3fiLp_MwWBO3-BUcPgy-9" target="Z3fiLp_MwWBO3-BUcPgy-11">
          <mxGeometry relative="1" as="geometry" />
        </mxCell>
        <mxCell id="Z3fiLp_MwWBO3-BUcPgy-27" style="edgeStyle=orthogonalEdgeStyle;rounded=0;orthogonalLoop=1;jettySize=auto;html=1;" edge="1" parent="1" source="Z3fiLp_MwWBO3-BUcPgy-9" target="Z3fiLp_MwWBO3-BUcPgy-23">
          <mxGeometry relative="1" as="geometry" />
        </mxCell>
        <mxCell id="Z3fiLp_MwWBO3-BUcPgy-9" value="userInput == 2" style="rhombus;whiteSpace=wrap;html=1;" vertex="1" parent="1">
          <mxGeometry x="330" y="590" width="190" height="80" as="geometry" />
        </mxCell>
        <mxCell id="Z3fiLp_MwWBO3-BUcPgy-14" value="" style="edgeStyle=orthogonalEdgeStyle;rounded=0;orthogonalLoop=1;jettySize=auto;html=1;" edge="1" parent="1" source="Z3fiLp_MwWBO3-BUcPgy-11" target="Z3fiLp_MwWBO3-BUcPgy-13">
          <mxGeometry relative="1" as="geometry" />
        </mxCell>
        <mxCell id="Z3fiLp_MwWBO3-BUcPgy-29" value="" style="edgeStyle=orthogonalEdgeStyle;rounded=0;orthogonalLoop=1;jettySize=auto;html=1;" edge="1" parent="1" source="Z3fiLp_MwWBO3-BUcPgy-11" target="Z3fiLp_MwWBO3-BUcPgy-28">
          <mxGeometry relative="1" as="geometry" />
        </mxCell>
        <mxCell id="Z3fiLp_MwWBO3-BUcPgy-11" value="userInput == 3" style="rhombus;whiteSpace=wrap;html=1;" vertex="1" parent="1">
          <mxGeometry x="330.5" y="730" width="190" height="80" as="geometry" />
        </mxCell>
        <mxCell id="Z3fiLp_MwWBO3-BUcPgy-16" value="" style="edgeStyle=orthogonalEdgeStyle;rounded=0;orthogonalLoop=1;jettySize=auto;html=1;" edge="1" parent="1" source="Z3fiLp_MwWBO3-BUcPgy-13" target="Z3fiLp_MwWBO3-BUcPgy-15">
          <mxGeometry relative="1" as="geometry" />
        </mxCell>
        <mxCell id="Z3fiLp_MwWBO3-BUcPgy-32" value="" style="edgeStyle=orthogonalEdgeStyle;rounded=0;orthogonalLoop=1;jettySize=auto;html=1;" edge="1" parent="1" source="Z3fiLp_MwWBO3-BUcPgy-13" target="Z3fiLp_MwWBO3-BUcPgy-31">
          <mxGeometry relative="1" as="geometry" />
        </mxCell>
        <mxCell id="Z3fiLp_MwWBO3-BUcPgy-13" value="userInput == 4" style="rhombus;whiteSpace=wrap;html=1;" vertex="1" parent="1">
          <mxGeometry x="330.5" y="880" width="190" height="80" as="geometry" />
        </mxCell>
        <mxCell id="Z3fiLp_MwWBO3-BUcPgy-18" value="" style="edgeStyle=orthogonalEdgeStyle;rounded=0;orthogonalLoop=1;jettySize=auto;html=1;" edge="1" parent="1" source="Z3fiLp_MwWBO3-BUcPgy-15" target="Z3fiLp_MwWBO3-BUcPgy-17">
          <mxGeometry relative="1" as="geometry" />
        </mxCell>
        <mxCell id="Z3fiLp_MwWBO3-BUcPgy-36" value="" style="edgeStyle=orthogonalEdgeStyle;rounded=0;orthogonalLoop=1;jettySize=auto;html=1;" edge="1" parent="1" source="Z3fiLp_MwWBO3-BUcPgy-15" target="Z3fiLp_MwWBO3-BUcPgy-35">
          <mxGeometry relative="1" as="geometry" />
        </mxCell>
        <mxCell id="Z3fiLp_MwWBO3-BUcPgy-15" value="userInput == 5" style="rhombus;whiteSpace=wrap;html=1;" vertex="1" parent="1">
          <mxGeometry x="330.5" y="1040" width="190" height="80" as="geometry" />
        </mxCell>
        <mxCell id="Z3fiLp_MwWBO3-BUcPgy-20" value="" style="edgeStyle=orthogonalEdgeStyle;rounded=0;orthogonalLoop=1;jettySize=auto;html=1;" edge="1" parent="1" source="Z3fiLp_MwWBO3-BUcPgy-17" target="Z3fiLp_MwWBO3-BUcPgy-19">
          <mxGeometry relative="1" as="geometry" />
        </mxCell>
        <mxCell id="Z3fiLp_MwWBO3-BUcPgy-39" value="" style="edgeStyle=orthogonalEdgeStyle;rounded=0;orthogonalLoop=1;jettySize=auto;html=1;" edge="1" parent="1" source="Z3fiLp_MwWBO3-BUcPgy-17" target="Z3fiLp_MwWBO3-BUcPgy-38">
          <mxGeometry relative="1" as="geometry" />
        </mxCell>
        <mxCell id="Z3fiLp_MwWBO3-BUcPgy-17" value="userInput == 6" style="rhombus;whiteSpace=wrap;html=1;" vertex="1" parent="1">
          <mxGeometry x="330" y="1200" width="190" height="80" as="geometry" />
        </mxCell>
        <mxCell id="Z3fiLp_MwWBO3-BUcPgy-41" value="" style="edgeStyle=orthogonalEdgeStyle;rounded=0;orthogonalLoop=1;jettySize=auto;html=1;" edge="1" parent="1" source="Z3fiLp_MwWBO3-BUcPgy-19" target="Z3fiLp_MwWBO3-BUcPgy-40">
          <mxGeometry relative="1" as="geometry" />
        </mxCell>
        <mxCell id="Z3fiLp_MwWBO3-BUcPgy-44" style="edgeStyle=orthogonalEdgeStyle;rounded=0;orthogonalLoop=1;jettySize=auto;html=1;" edge="1" parent="1" source="Z3fiLp_MwWBO3-BUcPgy-19" target="Z3fiLp_MwWBO3-BUcPgy-43">
          <mxGeometry relative="1" as="geometry">
            <Array as="points">
              <mxPoint x="426" y="1460" />
              <mxPoint x="650" y="1460" />
            </Array>
          </mxGeometry>
        </mxCell>
        <mxCell id="Z3fiLp_MwWBO3-BUcPgy-19" value="userInput == 7" style="rhombus;whiteSpace=wrap;html=1;" vertex="1" parent="1">
          <mxGeometry x="330.5" y="1340" width="190" height="80" as="geometry" />
        </mxCell>
        <mxCell id="Z3fiLp_MwWBO3-BUcPgy-53" style="edgeStyle=orthogonalEdgeStyle;rounded=0;orthogonalLoop=1;jettySize=auto;html=1;" edge="1" parent="1" source="Z3fiLp_MwWBO3-BUcPgy-21">
          <mxGeometry relative="1" as="geometry">
            <mxPoint x="780" y="1610" as="targetPoint" />
            <Array as="points">
              <mxPoint x="650" y="540" />
              <mxPoint x="781" y="540" />
              <mxPoint x="781" y="1610" />
            </Array>
          </mxGeometry>
        </mxCell>
        <mxCell id="Z3fiLp_MwWBO3-BUcPgy-21" value="Monday&amp;nbsp;" style="shape=parallelogram;perimeter=parallelogramPerimeter;whiteSpace=wrap;html=1;fixedSize=1;" vertex="1" parent="1">
          <mxGeometry x="590" y="450" width="120" height="60" as="geometry" />
        </mxCell>
        <mxCell id="Z3fiLp_MwWBO3-BUcPgy-52" style="edgeStyle=orthogonalEdgeStyle;rounded=0;orthogonalLoop=1;jettySize=auto;html=1;" edge="1" parent="1" source="Z3fiLp_MwWBO3-BUcPgy-23">
          <mxGeometry relative="1" as="geometry">
            <mxPoint x="780" y="1613.5294117647059" as="targetPoint" />
            <Array as="points">
              <mxPoint x="650" y="700" />
              <mxPoint x="781" y="700" />
              <mxPoint x="781" y="1614" />
            </Array>
          </mxGeometry>
        </mxCell>
        <mxCell id="Z3fiLp_MwWBO3-BUcPgy-23" value="Tuesday" style="shape=parallelogram;perimeter=parallelogramPerimeter;whiteSpace=wrap;html=1;fixedSize=1;" vertex="1" parent="1">
          <mxGeometry x="590" y="600" width="120" height="60" as="geometry" />
        </mxCell>
        <mxCell id="Z3fiLp_MwWBO3-BUcPgy-24" value="True" style="text;html=1;align=center;verticalAlign=middle;whiteSpace=wrap;rounded=0;" vertex="1" parent="1">
          <mxGeometry x="523" y="440" width="60" height="30" as="geometry" />
        </mxCell>
        <mxCell id="Z3fiLp_MwWBO3-BUcPgy-25" value="True" style="text;html=1;align=center;verticalAlign=middle;whiteSpace=wrap;rounded=0;" vertex="1" parent="1">
          <mxGeometry x="523" y="590" width="60" height="30" as="geometry" />
        </mxCell>
        <mxCell id="Z3fiLp_MwWBO3-BUcPgy-51" style="edgeStyle=orthogonalEdgeStyle;rounded=0;orthogonalLoop=1;jettySize=auto;html=1;" edge="1" parent="1" source="Z3fiLp_MwWBO3-BUcPgy-28">
          <mxGeometry relative="1" as="geometry">
            <mxPoint x="780" y="1600" as="targetPoint" />
            <Array as="points">
              <mxPoint x="650" y="840" />
              <mxPoint x="781" y="840" />
              <mxPoint x="781" y="1600" />
            </Array>
          </mxGeometry>
        </mxCell>
        <mxCell id="Z3fiLp_MwWBO3-BUcPgy-28" value="Wednesday&amp;nbsp;" style="shape=parallelogram;perimeter=parallelogramPerimeter;whiteSpace=wrap;html=1;fixedSize=1;" vertex="1" parent="1">
          <mxGeometry x="590" y="740" width="120" height="60" as="geometry" />
        </mxCell>
        <mxCell id="Z3fiLp_MwWBO3-BUcPgy-30" value="True" style="text;html=1;align=center;verticalAlign=middle;whiteSpace=wrap;rounded=0;" vertex="1" parent="1">
          <mxGeometry x="530" y="730" width="60" height="30" as="geometry" />
        </mxCell>
        <mxCell id="Z3fiLp_MwWBO3-BUcPgy-50" style="edgeStyle=orthogonalEdgeStyle;rounded=0;orthogonalLoop=1;jettySize=auto;html=1;entryX=0.5;entryY=0;entryDx=0;entryDy=0;" edge="1" parent="1" source="Z3fiLp_MwWBO3-BUcPgy-31" target="Z3fiLp_MwWBO3-BUcPgy-45">
          <mxGeometry relative="1" as="geometry">
            <Array as="points">
              <mxPoint x="650" y="970" />
              <mxPoint x="780" y="970" />
            </Array>
          </mxGeometry>
        </mxCell>
        <mxCell id="Z3fiLp_MwWBO3-BUcPgy-31" value="Thursday&amp;nbsp;" style="shape=parallelogram;perimeter=parallelogramPerimeter;whiteSpace=wrap;html=1;fixedSize=1;" vertex="1" parent="1">
          <mxGeometry x="590" y="890" width="120" height="60" as="geometry" />
        </mxCell>
        <mxCell id="Z3fiLp_MwWBO3-BUcPgy-33" value="True" style="text;html=1;align=center;verticalAlign=middle;whiteSpace=wrap;rounded=0;" vertex="1" parent="1">
          <mxGeometry x="520" y="880" width="60" height="30" as="geometry" />
        </mxCell>
        <mxCell id="Z3fiLp_MwWBO3-BUcPgy-34" value="True" style="text;html=1;align=center;verticalAlign=middle;whiteSpace=wrap;rounded=0;" vertex="1" parent="1">
          <mxGeometry x="520.5" y="1030" width="60" height="30" as="geometry" />
        </mxCell>
        <mxCell id="Z3fiLp_MwWBO3-BUcPgy-49" style="edgeStyle=orthogonalEdgeStyle;rounded=0;orthogonalLoop=1;jettySize=auto;html=1;" edge="1" parent="1" source="Z3fiLp_MwWBO3-BUcPgy-35">
          <mxGeometry relative="1" as="geometry">
            <mxPoint x="780" y="1600" as="targetPoint" />
            <Array as="points">
              <mxPoint x="650" y="1160" />
              <mxPoint x="781" y="1160" />
              <mxPoint x="781" y="1600" />
            </Array>
          </mxGeometry>
        </mxCell>
        <mxCell id="Z3fiLp_MwWBO3-BUcPgy-35" value="Friday&amp;nbsp;" style="shape=parallelogram;perimeter=parallelogramPerimeter;whiteSpace=wrap;html=1;fixedSize=1;" vertex="1" parent="1">
          <mxGeometry x="590" y="1050" width="120" height="60" as="geometry" />
        </mxCell>
        <mxCell id="Z3fiLp_MwWBO3-BUcPgy-37" value="True" style="text;html=1;align=center;verticalAlign=middle;whiteSpace=wrap;rounded=0;" vertex="1" parent="1">
          <mxGeometry x="520.5" y="1210" width="60" height="30" as="geometry" />
        </mxCell>
        <mxCell id="Z3fiLp_MwWBO3-BUcPgy-48" style="edgeStyle=orthogonalEdgeStyle;rounded=0;orthogonalLoop=1;jettySize=auto;html=1;entryX=0.5;entryY=0;entryDx=0;entryDy=0;" edge="1" parent="1" source="Z3fiLp_MwWBO3-BUcPgy-38" target="Z3fiLp_MwWBO3-BUcPgy-45">
          <mxGeometry relative="1" as="geometry">
            <Array as="points">
              <mxPoint x="650" y="1310" />
              <mxPoint x="780" y="1310" />
            </Array>
          </mxGeometry>
        </mxCell>
        <mxCell id="Z3fiLp_MwWBO3-BUcPgy-38" value="Saturday" style="shape=parallelogram;perimeter=parallelogramPerimeter;whiteSpace=wrap;html=1;fixedSize=1;" vertex="1" parent="1">
          <mxGeometry x="590" y="1210" width="120" height="60" as="geometry" />
        </mxCell>
        <mxCell id="Z3fiLp_MwWBO3-BUcPgy-47" style="edgeStyle=orthogonalEdgeStyle;rounded=0;orthogonalLoop=1;jettySize=auto;html=1;" edge="1" parent="1" source="Z3fiLp_MwWBO3-BUcPgy-40" target="Z3fiLp_MwWBO3-BUcPgy-45">
          <mxGeometry relative="1" as="geometry">
            <Array as="points">
              <mxPoint x="650" y="1440" />
              <mxPoint x="780" y="1440" />
            </Array>
          </mxGeometry>
        </mxCell>
        <mxCell id="Z3fiLp_MwWBO3-BUcPgy-40" value="Sunday&amp;nbsp;" style="shape=parallelogram;perimeter=parallelogramPerimeter;whiteSpace=wrap;html=1;fixedSize=1;" vertex="1" parent="1">
          <mxGeometry x="590" y="1350" width="120" height="60" as="geometry" />
        </mxCell>
        <mxCell id="Z3fiLp_MwWBO3-BUcPgy-42" value="True" style="text;html=1;align=center;verticalAlign=middle;whiteSpace=wrap;rounded=0;" vertex="1" parent="1">
          <mxGeometry x="523" y="1350" width="60" height="30" as="geometry" />
        </mxCell>
        <mxCell id="Z3fiLp_MwWBO3-BUcPgy-46" style="edgeStyle=orthogonalEdgeStyle;rounded=0;orthogonalLoop=1;jettySize=auto;html=1;" edge="1" parent="1" source="Z3fiLp_MwWBO3-BUcPgy-43" target="Z3fiLp_MwWBO3-BUcPgy-45">
          <mxGeometry relative="1" as="geometry">
            <Array as="points">
              <mxPoint x="650" y="1580" />
              <mxPoint x="780" y="1580" />
            </Array>
          </mxGeometry>
        </mxCell>
        <mxCell id="Z3fiLp_MwWBO3-BUcPgy-43" value="Invalid" style="shape=parallelogram;perimeter=parallelogramPerimeter;whiteSpace=wrap;html=1;fixedSize=1;" vertex="1" parent="1">
          <mxGeometry x="590" y="1490" width="120" height="60" as="geometry" />
        </mxCell>
        <mxCell id="Z3fiLp_MwWBO3-BUcPgy-45" value="END" style="rounded=1;whiteSpace=wrap;html=1;arcSize=50;" vertex="1" parent="1">
          <mxGeometry x="720" y="1610" width="120" height="60" as="geometry" />
        </mxCell>
      </root>
    </mxGraphModel>
  </diagram>
</mxfile>
